<?xml version="1.0" encoding="UTF-8"?>
<svg version="1.1" xmlns="http://www.w3.org/2000/svg" width="250" height="250">
<path d="M0 0 C1.010625 0.53238281 2.02125 1.06476562 3.0625 1.61328125 C3.64878174 1.91943359 4.23506348 2.22558594 4.83911133 2.54101562 C12.55713394 6.62501798 20.12511323 10.99779394 27.7109375 15.3203125 C34.40653391 19.13124899 41.13765353 22.87677254 47.875 26.61328125 C49.01404785 27.24548584 50.1530957 27.87769043 51.32666016 28.52905273 C56.35596702 31.31935437 61.3872464 34.10603116 66.421875 36.88671875 C70.04529926 38.88889714 73.66393607 40.89926194 77.27490234 42.92382812 C78.92731755 43.85001114 80.58267218 44.77094463 82.23828125 45.69140625 C91.92692329 51.24379735 91.92692329 51.24379735 93.64356613 56.80982494 C94.07332422 58.98045238 94.19386453 60.94475123 94.20294189 63.15608215 C94.20865204 63.9928801 94.21436218 64.82967804 94.22024536 65.6918335 C94.22192215 67.05637665 94.22192215 67.05637665 94.22363281 68.44848633 C94.22859772 69.41318344 94.23356262 70.37788055 94.23867798 71.37181091 C94.25328195 74.56298537 94.26009862 77.75411012 94.265625 80.9453125 C94.27137782 83.16485088 94.27713554 85.38438925 94.28289795 87.60392761 C94.29340286 92.25849641 94.2992489 96.91304797 94.30273438 101.56762695 C94.30821854 107.52617385 94.33224725 113.48449218 94.36070633 119.44296741 C94.37934743 124.028383 94.3845391 128.61374368 94.38607025 133.19919395 C94.38909388 135.39558856 94.39711259 137.59198226 94.41025543 139.78833961 C94.42734666 142.86403328 94.42542801 145.93917044 94.41894531 149.01489258 C94.4281601 149.91851532 94.43737488 150.82213806 94.4468689 151.75314331 C94.41072677 157.23861002 93.65632416 161.06391626 91.0625 165.92578125 C89.15673828 167.72631836 89.15673828 167.72631836 87.0078125 169.015625 C86.20891602 169.50272949 85.41001953 169.98983398 84.58691406 170.49169922 C83.75385742 170.96494629 82.92080078 171.43819336 82.0625 171.92578125 C80.86318848 172.61051514 80.86318848 172.61051514 79.63964844 173.30908203 C77.08704922 174.73130236 74.51594624 176.1135167 71.9375 177.48828125 C64.16275528 181.68141679 56.43192649 185.9398362 48.75 190.30078125 C39.46675743 195.57007949 30.1614402 200.79815559 20.83666992 205.99365234 C14.73538338 209.40097609 8.69958933 212.89580608 2.71166992 216.49926758 C-1.25323031 218.63427007 -4.45894472 219.6518269 -8.9375 218.92578125 C-13.21318162 217.43828684 -17.0297492 215.17693398 -20.9375 212.92578125 C-22.60456461 211.98927415 -24.27261574 211.05452194 -25.94140625 210.12109375 C-29.86047153 207.92204736 -33.77069917 205.7081542 -37.67578125 203.484375 C-43.87233763 199.95746211 -50.08963331 196.46851146 -56.3125 192.98828125 C-57.85200317 192.12589844 -57.85200317 192.12589844 -59.42260742 191.24609375 C-64.86179553 188.20025016 -70.3063595 185.16446571 -75.7578125 182.140625 C-76.87623535 181.51857178 -77.9946582 180.89651855 -79.14697266 180.25561523 C-81.27251738 179.07361808 -83.39968623 177.89453469 -85.52880859 176.71899414 C-88.3487374 175.14885441 -91.14783615 173.54900671 -93.9375 171.92578125 C-94.79859375 171.43335938 -95.6596875 170.9409375 -96.546875 170.43359375 C-97.34609375 169.94632813 -98.1453125 169.4590625 -98.96875 168.95703125 C-99.66548828 168.54001953 -100.36222656 168.12300781 -101.08007812 167.69335938 C-104.92360734 164.03574219 -106.09555178 159.47783022 -106.31845093 154.3347168 C-106.33612913 152.57739846 -106.3375557 150.81986715 -106.32568359 149.0625 C-106.33094055 148.09736481 -106.33619751 147.13222961 -106.34161377 146.1378479 C-106.35476563 142.96282538 -106.34609257 139.78830845 -106.3359375 136.61328125 C-106.33795961 134.39802962 -106.3408722 132.18277865 -106.34463501 129.9675293 C-106.34905185 125.33082729 -106.34264777 120.69429897 -106.32861328 116.05761719 C-106.31152196 110.12265699 -106.32136655 104.18810384 -106.33933067 98.25315857 C-106.35018569 93.68059233 -106.34671424 89.10812215 -106.3389473 84.53555298 C-106.33695005 82.34754386 -106.33938781 80.15952594 -106.34638596 77.9715271 C-106.35402855 74.9104715 -106.34235648 71.85006959 -106.32568359 68.7890625 C-106.33175629 67.89015289 -106.33782898 66.99124329 -106.34408569 66.06509399 C-106.28908071 60.59727167 -105.53343863 56.76795796 -102.9375 51.92578125 C-99.65884426 48.77503595 -95.96507241 46.69336642 -91.984375 44.52734375 C-91.13172058 44.06041107 -91.13172058 44.06041107 -90.26184082 43.58404541 C-89.04146914 42.91637979 -87.8199158 42.25087025 -86.59729004 41.58734131 C-83.98779172 40.1710067 -81.38419311 38.7439816 -78.7802124 37.3175354 C-77.44378923 36.58554471 -76.10707679 35.8540819 -74.77008057 35.12313843 C-68.55316681 31.7227728 -62.36624007 28.2700081 -56.1875 24.80078125 C-55.18493164 24.23834717 -54.18236328 23.67591309 -53.14941406 23.09643555 C-51.12223066 21.95895318 -49.09521246 20.82117632 -47.06835938 19.68310547 C-41.52686114 16.57271056 -35.98203708 13.4682548 -30.4375 10.36328125 C-29.41688477 9.7914209 -28.39626953 9.21956055 -27.34472656 8.63037109 C-25.43005331 7.55786136 -23.51316134 6.48929998 -21.59375 5.42529297 C-19.86838416 4.45128589 -18.15858611 3.4489738 -16.46875 2.41455078 C-10.72714147 -1.0393856 -6.60223924 -2.4143827 0 0 Z " fill="#0080CC" transform="translate(130.9375,16.07421875)"/>
<path d="M0 0 C6.31089009 5.2718354 10.91627973 11.51073588 15.62890625 18.1953125 C13.11418105 21.02965633 10.30757022 22.65026443 7.0078125 24.48046875 C5.90759766 25.09341797 4.80738281 25.70636719 3.67382812 26.33789062 C1.9500293 27.28825195 1.9500293 27.28825195 0.19140625 28.2578125 C-0.95392578 28.89525391 -2.09925781 29.53269531 -3.27929688 30.18945312 C-12.35887369 35.23130122 -12.35887369 35.23130122 -16.37109375 37.1953125 C-16.84417969 36.60363281 -17.31726563 36.01195312 -17.8046875 35.40234375 C-23.97814948 28.02547787 -31.38045205 22.11364905 -41.29785156 20.97387695 C-49.90119825 20.49602646 -57.94755399 20.31698637 -65.37109375 25.1953125 C-66.06460938 25.63101563 -66.758125 26.06671875 -67.47265625 26.515625 C-73.91001424 30.92774677 -79.40970895 37.07967285 -81.8984375 44.60546875 C-84.16036594 56.99934112 -82.79162065 68.0029878 -75.62109375 78.4453125 C-70.74310364 84.51215949 -64.17010244 89.77196401 -56.37109375 91.1953125 C-43.47659561 92.23250649 -33.54233 91.06600137 -23.1328125 82.7890625 C-20.55841211 80.46011492 -18.47383606 77.95516179 -16.37109375 75.1953125 C-9.84263707 77.22051077 -4.11861776 80.33649314 1.87890625 83.5703125 C3.53019531 84.4365625 3.53019531 84.4365625 5.21484375 85.3203125 C6.26414062 85.88492188 7.3134375 86.44953125 8.39453125 87.03125 C9.35133789 87.54220215 10.30814453 88.0531543 11.29394531 88.57958984 C13.75399625 90.28187101 14.59631473 91.42949587 15.62890625 94.1953125 C13.31667274 97.21216155 10.97576113 100.20535219 8.62890625 103.1953125 C8.17386719 103.80246094 7.71882812 104.40960938 7.25 105.03515625 C-4.19358561 119.553138 -22.45545935 127.01142179 -40.37109375 129.1953125 C-61.75200855 130.44593969 -80.56044209 124.23742099 -96.99609375 110.5078125 C-111.31629373 97.18669624 -119.43681619 79.1678654 -120.57421875 59.72265625 C-120.84843988 38.72188807 -114.04116322 19.85469968 -99.65234375 4.38671875 C-71.50779353 -22.64939884 -30.55376413 -23.25508901 0 0 Z " fill="#FCFDFD" transform="translate(172.37109375,68.8046875)"/>
<path d="M0 0 C2.62988256 2.4275839 4.81302848 5.00943376 6.9375 7.875 C7.72060547 8.92494141 7.72060547 8.92494141 8.51953125 9.99609375 C9.73112228 11.63605734 10.92991435 13.28546983 12.125 14.9375 C23.10057162 27.76563626 40.54311281 35.00896333 57 37 C78.43215618 38.26644559 97.41584108 32.38456386 114.125 18.8125 C118.43261342 14.91428785 121.73807889 10.26611694 125.1171875 5.57421875 C127 3 127 3 129 1 C129.81678223 1.43868408 130.63356445 1.87736816 131.47509766 2.3293457 C134.52746669 3.96821174 137.58024634 5.60630789 140.63330078 7.24389648 C141.95052158 7.95062307 143.26758159 8.65764942 144.58447266 9.36499023 C146.48557243 10.38605783 148.38726227 11.40601903 150.2890625 12.42578125 C152.00150146 13.34484253 152.00150146 13.34484253 153.74853516 14.2824707 C156.8113948 15.90037261 159.89533566 17.46411638 163 19 C161.51707655 23.47903409 158.07778527 25.07336931 154.1875 27.25 C153.45611816 27.66983154 152.72473633 28.08966309 151.97119141 28.5222168 C143.39849881 33.41039828 134.7356978 38.14291427 126.08666992 42.89453125 C118.36617231 47.13621847 110.66729406 51.41255127 103 55.75 C102.07993164 56.26828369 101.15986328 56.78656738 100.21191406 57.32055664 C95.51706177 59.97338985 90.85548518 62.67107471 86.2265625 65.4375 C85.28554687 65.9934082 84.34453125 66.54931641 83.375 67.12207031 C81.60395611 68.17048302 79.84023755 69.23142158 78.0859375 70.30761719 C72.81294829 73.41400317 68.20371427 75.27551655 62 75 C59.3046875 74.2421875 59.3046875 74.2421875 56.875 72.875 C55.85535156 72.31554687 54.83570312 71.75609375 53.78515625 71.1796875 C52.5232998 70.45336418 51.26159741 69.72677317 50 69 C48.33293539 68.0634929 46.66488426 67.12874069 44.99609375 66.1953125 C41.07702847 63.99626611 37.16680083 61.78237295 33.26171875 59.55859375 C27.06516237 56.03168086 20.84786669 52.54273021 14.625 49.0625 C13.08549683 48.20011719 13.08549683 48.20011719 11.51489258 47.3203125 C6.07570447 44.27446891 0.6311405 41.23868446 -4.8203125 38.21484375 C-5.93873535 37.59279053 -7.0571582 36.9707373 -8.20947266 36.32983398 C-10.33501738 35.14783683 -12.46218623 33.96875344 -14.59130859 32.79321289 C-31.54975719 23.35072843 -31.54975719 23.35072843 -33 19 C-32.28457031 18.60208252 -31.56914062 18.20416504 -30.83203125 17.79418945 C-28.13986267 16.29551702 -25.44874861 14.79497195 -22.75830078 13.29321289 C-21.03627108 12.33273062 -19.31306956 11.37435026 -17.58984375 10.41601562 C-11.62621085 7.08544871 -5.75111305 3.68606878 0 0 Z " fill="#00549D" transform="translate(60,160)"/>
<path d="M0 0 C0.87011719 0.51046875 1.74023438 1.0209375 2.63671875 1.546875 C4.06571141 2.27476705 5.49695171 2.99825363 6.9296875 3.71875 C8.56297899 4.57473513 10.19442096 5.43425644 11.82421875 6.296875 C12.66831299 6.74208496 13.51240723 7.18729492 14.38208008 7.64599609 C20.25374547 10.76300418 26.01626343 13.99255107 31.63671875 17.546875 C29.22731745 24.83848421 23.01232059 29.54621383 16.32421875 32.984375 C8.2172159 36.77444132 -2.53902225 36.95079418 -11.19921875 34.86328125 C-13.42300939 33.92304696 -15.34682004 32.87197808 -17.36328125 31.546875 C-18.05679688 31.11117187 -18.7503125 30.67546875 -19.46484375 30.2265625 C-24.51763695 26.76341211 -27.97031482 22.61062035 -31.36328125 17.546875 C-27.76115396 13.35248419 -23.34831923 11.11907246 -18.55078125 8.546875 C-16.98157792 7.6930628 -15.41256489 6.83890074 -13.84375 5.984375 C-13.08497559 5.57960937 -12.32620117 5.17484375 -11.54443359 4.7578125 C-10.13742375 3.97666533 -8.7539673 3.15069181 -7.40478516 2.2734375 C-2.99384398 -0.57402628 -2.99384398 -0.57402628 0 0 Z " fill="#00549D" transform="translate(124.36328125,125.453125)"/>
<path d="M0 0 C3.63 0 7.26 0 11 0 C11 3.63 11 7.26 11 11 C14.3 11 17.6 11 21 11 C21 14.3 21 17.6 21 21 C17.7 21 14.4 21 11 21 C11 24.63 11 28.26 11 32 C7.37 32 3.74 32 0 32 C0 28.37 0 24.74 0 21 C-3.3 21 -6.6 21 -10 21 C-10 17.7 -10 14.4 -10 11 C-6.7 11 -3.4 11 0 11 C0 7.37 0 3.74 0 0 Z " fill="#F6FAFC" transform="translate(161,109)"/>
<path d="M0 0 C3.3 0 6.6 0 10 0 C10 3.63 10 7.26 10 11 C13.63 11 17.26 11 21 11 C21 14.3 21 17.6 21 21 C17.37 21 13.74 21 10 21 C10 24.63 10 28.26 10 32 C6.7 32 3.4 32 0 32 C0 28.37 0 24.74 0 21 C-3.3 21 -6.6 21 -10 21 C-10 17.7 -10 14.4 -10 11 C-6.7 11 -3.4 11 0 11 C0 7.37 0 3.74 0 0 Z " fill="#FAFCFD" transform="translate(198,109)"/>
</svg>
