<?xml version="1.0" encoding="UTF-8"?>
<svg version="1.1" xmlns="http://www.w3.org/2000/svg" width="250" height="250">
<path d="M0 0 C1.010625 0.53238281 2.02125 1.06476562 3.0625 1.61328125 C3.64878174 1.91943359 4.23506348 2.22558594 4.83911133 2.54101562 C12.56640854 6.62992564 20.14336529 11.00819011 27.73828125 15.3359375 C34.27883159 19.05864248 40.85527695 22.71490312 47.4375 26.36328125 C49.69921875 27.61979167 51.9609375 28.87630208 54.22265625 30.1328125 C58.26615832 32.3776553 62.31313501 34.61591468 66.36517334 36.84529114 C69.20433163 38.40917697 72.03917241 39.98086609 74.875 41.55078125 C75.91253418 42.11853271 76.95006836 42.68628418 78.01904297 43.27124023 C90.96220816 50.45698784 90.96220816 50.45698784 93.19694519 55.47120667 C94.31520868 59.93438402 94.34973991 64.09211362 94.3371582 68.67553711 C94.34226913 69.64052628 94.34738007 70.60551544 94.35264587 71.5997467 C94.36651182 74.78010308 94.36558741 77.96024204 94.36328125 81.140625 C94.36716965 83.35730571 94.37150462 85.57398567 94.37626648 87.79066467 C94.38372213 92.43330299 94.38344201 97.07586525 94.37817383 101.71850586 C94.37237834 107.66132219 94.38931551 113.60382694 94.4125185 119.54659176 C94.42726542 124.12343662 94.42812625 128.70020659 94.42500877 133.277071 C94.42552144 135.46787699 94.43074895 137.65868724 94.44082069 139.84947014 C94.45318689 142.91539519 94.44639214 145.98071516 94.43481445 149.04663086 C94.44245819 149.94711151 94.45010193 150.84759216 94.45797729 151.77536011 C94.41239657 157.24926854 93.64571227 161.0720693 91.0625 165.92578125 C89.19628906 167.70654297 89.19628906 167.70654297 87.078125 168.98046875 C86.27955078 169.46741211 85.48097656 169.95435547 84.65820312 170.45605469 C80.07457196 173.05137632 75.46729505 175.58504921 70.8125 178.05078125 C62.16233026 182.68397162 53.59265872 187.42700833 45.08911133 192.32348633 C37.07730751 196.93294463 29.01365869 201.44705278 20.93774414 205.94311523 C14.80040769 209.36685889 8.72872316 212.87710157 2.70727539 216.50146484 C-1.25562047 218.63564138 -4.46120404 219.65146063 -8.9375 218.92578125 C-13.21318162 217.43828684 -17.0297492 215.17693398 -20.9375 212.92578125 C-22.60456461 211.98927415 -24.27261574 211.05452194 -25.94140625 210.12109375 C-29.86047153 207.92204736 -33.77069917 205.7081542 -37.67578125 203.484375 C-43.87233763 199.95746211 -50.08963331 196.46851146 -56.3125 192.98828125 C-57.85200317 192.12589844 -57.85200317 192.12589844 -59.42260742 191.24609375 C-64.86179553 188.20025016 -70.3063595 185.16446571 -75.7578125 182.140625 C-76.87623535 181.51857178 -77.9946582 180.89651855 -79.14697266 180.25561523 C-81.27251738 179.07361808 -83.39968623 177.89453469 -85.52880859 176.71899414 C-88.3487374 175.14885441 -91.14783615 173.54900671 -93.9375 171.92578125 C-94.79859375 171.43335938 -95.6596875 170.9409375 -96.546875 170.43359375 C-97.34609375 169.94632813 -98.1453125 169.4590625 -98.96875 168.95703125 C-99.66548828 168.54001953 -100.36222656 168.12300781 -101.08007812 167.69335938 C-104.92360734 164.03574219 -106.09555178 159.47783022 -106.31845093 154.3347168 C-106.33612913 152.57739846 -106.3375557 150.81986715 -106.32568359 149.0625 C-106.33094055 148.09736481 -106.33619751 147.13222961 -106.34161377 146.1378479 C-106.35476563 142.96282538 -106.34609257 139.78830845 -106.3359375 136.61328125 C-106.33795961 134.39802962 -106.3408722 132.18277865 -106.34463501 129.9675293 C-106.34905185 125.33082729 -106.34264777 120.69429897 -106.32861328 116.05761719 C-106.31152196 110.12265699 -106.32136655 104.18810384 -106.33933067 98.25315857 C-106.35018569 93.68059233 -106.34671424 89.10812215 -106.3389473 84.53555298 C-106.33695005 82.34754386 -106.33938781 80.15952594 -106.34638596 77.9715271 C-106.35402855 74.9104715 -106.34235648 71.85006959 -106.32568359 68.7890625 C-106.33175629 67.89015289 -106.33782898 66.99124329 -106.34408569 66.06509399 C-106.28908071 60.59727167 -105.53343863 56.76795796 -102.9375 51.92578125 C-99.65884426 48.77503595 -95.96507241 46.69336642 -91.984375 44.52734375 C-91.13172058 44.06041107 -91.13172058 44.06041107 -90.26184082 43.58404541 C-89.04146914 42.91637979 -87.8199158 42.25087025 -86.59729004 41.58734131 C-83.98779172 40.1710067 -81.38419311 38.7439816 -78.7802124 37.3175354 C-77.44378923 36.58554471 -76.10707679 35.8540819 -74.77008057 35.12313843 C-68.55316681 31.7227728 -62.36624007 28.2700081 -56.1875 24.80078125 C-55.18493164 24.23834717 -54.18236328 23.67591309 -53.14941406 23.09643555 C-51.12223066 21.95895318 -49.09521246 20.82117632 -47.06835938 19.68310547 C-41.52686114 16.57271056 -35.98203708 13.4682548 -30.4375 10.36328125 C-29.41688477 9.7914209 -28.39626953 9.21956055 -27.34472656 8.63037109 C-25.43005331 7.55786136 -23.51316134 6.48929998 -21.59375 5.42529297 C-19.86838416 4.45128589 -18.15858611 3.4489738 -16.46875 2.41455078 C-10.72714147 -1.0393856 -6.60223924 -2.4143827 0 0 Z " fill="#3847AC" transform="translate(130.9375,16.07421875)"/>
<path d="M0 0 C6.71697842 5.55798982 11.84555286 11.90655176 16.71655273 19.11865234 C14.30939403 21.79117105 11.73180503 23.39652707 8.60327148 25.14990234 C7.10183594 25.99488281 7.10183594 25.99488281 5.57006836 26.85693359 C4.00289062 27.72898437 4.00289062 27.72898437 2.40405273 28.61865234 C1.37086914 29.20001953 0.33768555 29.78138672 -0.72680664 30.38037109 C-5.52778933 33.07187774 -10.32457284 35.72883334 -15.28344727 38.11865234 C-15.7565332 37.52697266 -16.22961914 36.93529297 -16.71704102 36.32568359 C-22.890503 28.94881772 -30.29280556 23.03698889 -40.21020508 21.8972168 C-48.81355176 21.4193663 -56.8599075 21.24032621 -64.28344727 26.11865234 C-64.97696289 26.55435547 -65.67047852 26.99005859 -66.38500977 27.43896484 C-72.82236775 31.85108661 -78.32206247 38.00301269 -80.81079102 45.52880859 C-83.07364549 57.927755 -81.66553865 68.87257377 -74.59594727 79.36865234 C-69.57901736 85.63981472 -61.31854673 91.2053638 -53.29101562 92.42016602 C-51.17449395 92.55597888 -49.09153484 92.586354 -46.97094727 92.55615234 C-46.22401611 92.5485791 -45.47708496 92.54100586 -44.70751953 92.53320312 C-34.96915728 92.24395529 -27.48270644 88.63150765 -20.28344727 82.11865234 C-18.47822499 80.18605429 -16.88933338 78.22637787 -15.28344727 76.11865234 C-8.75499059 78.14385061 -3.03097127 81.25983299 2.96655273 84.49365234 C4.6178418 85.35990234 4.6178418 85.35990234 6.30249023 86.24365234 C7.35178711 86.80826172 8.40108398 87.37287109 9.48217773 87.95458984 C10.43898437 88.46554199 11.39579102 88.97649414 12.3815918 89.50292969 C14.84164274 91.20521086 15.68396121 92.35283572 16.71655273 95.11865234 C3.24230493 113.44050187 -12.74981852 125.92347641 -35.65063477 129.66943359 C-57.21765931 132.33632373 -76.51082324 126.36239583 -93.65454102 113.31396484 C-108.78883852 100.67144942 -117.52760409 82.49866124 -119.49487305 63.02587891 C-120.86731758 42.31623207 -113.79772533 23.29744061 -100.59594727 7.49365234 C-74.1649379 -20.91968273 -30.23410172 -23.67423877 0 0 Z " fill="#FDFDFE" transform="translate(171.283447265625,67.88134765625)"/>
<path d="M0 0 C1.010625 0.53238281 2.02125 1.06476562 3.0625 1.61328125 C3.64878174 1.91943359 4.23506348 2.22558594 4.83911133 2.54101562 C12.56640854 6.62992564 20.14336529 11.00819011 27.73828125 15.3359375 C34.27882732 19.05864006 40.85510063 22.7152273 47.4375 26.36328125 C49.69667677 27.61707546 51.95579118 28.87098204 54.21484375 30.125 C55.89876221 31.05965088 55.89876221 31.05965088 57.61669922 32.01318359 C59.32237061 32.95991943 59.32237061 32.95991943 61.0625 33.92578125 C61.64864075 34.25096741 62.23478149 34.57615356 62.83868408 34.91119385 C66.89484074 37.16178774 70.94796177 39.41777747 75 41.67578125 C76.05429199 42.26029053 77.10858398 42.8447998 78.19482422 43.44702148 C79.65879639 44.26408569 79.65879639 44.26408569 81.15234375 45.09765625 C82.00691162 45.57299805 82.86147949 46.04833984 83.74194336 46.53808594 C85.97405954 47.87289376 88.01476194 49.32538612 90.0625 50.92578125 C88.74851256 54.86774358 87.27338982 55.20902101 83.671875 57.17578125 C82.01865234 58.0884375 82.01865234 58.0884375 80.33203125 59.01953125 C79.15901958 59.65525322 77.98584091 60.29066714 76.8125 60.92578125 C74.53620127 62.17531306 72.26015058 63.42529688 69.984375 64.67578125 C68.46215332 65.50335938 68.46215332 65.50335938 66.90917969 66.34765625 C65.02032241 67.39478948 63.1575796 68.49055942 61.32543945 69.6340332 C59.0625 70.92578125 59.0625 70.92578125 56.93359375 70.84375 C54.56169648 69.68008433 53.61803186 68.40958797 52.125 66.23828125 C51.60292969 65.51125 51.08085937 64.78421875 50.54296875 64.03515625 C50.05441406 63.3390625 49.56585938 62.64296875 49.0625 61.92578125 C38.62823076 47.50193848 21.27682411 40.2257358 4.21777344 37.23486328 C-16.85178779 34.21333354 -36.26302659 41.12003265 -53.0859375 53.5078125 C-67.34793345 65.09216099 -75.75259407 82.90989022 -77.9375 100.92578125 C-78.94736172 116.12337244 -76.17883166 130.03201782 -69.9375 143.92578125 C-76.70418577 148.58706291 -83.67469959 152.79692565 -90.8125 156.86328125 C-92.359375 157.76530273 -92.359375 157.76530273 -93.9375 158.68554688 C-95.41863281 159.52956055 -95.41863281 159.52956055 -96.9296875 160.390625 C-97.82026855 160.90230225 -98.71084961 161.41397949 -99.62841797 161.94116211 C-101.9375 162.92578125 -101.9375 162.92578125 -104.9375 161.92578125 C-105.84459784 159.20448774 -106.06647257 157.61332345 -106.07794189 154.81573486 C-106.08365204 153.98031158 -106.08936218 153.14488831 -106.09524536 152.28414917 C-106.09636322 151.37085846 -106.09748108 150.45756775 -106.09863281 149.51660156 C-106.10359772 148.55205048 -106.10856262 147.58749939 -106.11367798 146.59371948 C-106.12830364 143.39710785 -106.13510276 140.20054587 -106.140625 137.00390625 C-106.14637669 134.78293862 -106.15213442 132.56197101 -106.15789795 130.34100342 C-106.16840948 125.68045826 -106.17425097 121.01993035 -106.17773438 116.359375 C-106.18321542 110.39295233 -106.20723465 104.42675828 -106.23570633 98.46040726 C-106.25434905 93.87070047 -106.25953922 89.28104852 -106.26107025 84.69130707 C-106.26409426 82.4921214 -106.27211428 80.29293663 -106.28525543 78.09378815 C-106.30234763 75.01319607 -106.3004276 71.93315958 -106.29394531 68.85253906 C-106.3031601 67.94734528 -106.31237488 67.04215149 -106.3218689 66.10952759 C-106.28574965 60.61816068 -105.54996917 56.78644613 -102.9375 51.92578125 C-99.65884426 48.77503595 -95.96507241 46.69336642 -91.984375 44.52734375 C-91.13172058 44.06041107 -91.13172058 44.06041107 -90.26184082 43.58404541 C-89.04146914 42.91637979 -87.8199158 42.25087025 -86.59729004 41.58734131 C-83.98779172 40.1710067 -81.38419311 38.7439816 -78.7802124 37.3175354 C-77.44378923 36.58554471 -76.10707679 35.8540819 -74.77008057 35.12313843 C-68.55316681 31.7227728 -62.36624007 28.2700081 -56.1875 24.80078125 C-55.18493164 24.23834717 -54.18236328 23.67591309 -53.14941406 23.09643555 C-51.12223066 21.95895318 -49.09521246 20.82117632 -47.06835938 19.68310547 C-41.52686114 16.57271056 -35.98203708 13.4682548 -30.4375 10.36328125 C-29.41688477 9.7914209 -28.39626953 9.21956055 -27.34472656 8.63037109 C-25.43005331 7.55786136 -23.51316134 6.48929998 -21.59375 5.42529297 C-19.86838416 4.45128589 -18.15858611 3.4489738 -16.46875 2.41455078 C-10.72714147 -1.0393856 -6.60223924 -2.4143827 0 0 Z " fill="#5C6BBF" transform="translate(130.9375,16.07421875)"/>
<path d="M0 0 C2.62988256 2.4275839 4.81302848 5.00943376 6.9375 7.875 C7.72060547 8.92494141 7.72060547 8.92494141 8.51953125 9.99609375 C9.73112228 11.63605734 10.92991435 13.28546983 12.125 14.9375 C23.10057162 27.76563626 40.54311281 35.00896333 57 37 C78.40096037 38.2646022 97.35676503 32.40028443 114.0625 18.875 C119.4886129 13.9678085 123.68931178 7.87419604 128 2 C132.47163989 2.59351527 135.96301781 4.40531881 139.83203125 6.59765625 C140.46864182 6.95137802 141.10525238 7.30509979 141.76115417 7.66954041 C143.78186809 8.79421459 145.79718783 9.92818021 147.8125 11.0625 C149.18650279 11.82939657 150.56084832 12.59567944 151.93554688 13.36132812 C155.2943745 15.23380283 158.64839796 17.11462485 162 19 C162 19.99 162 20.98 162 22 C156.19747307 27.12718628 148.55059447 30.52259786 141.75 34.125 C133.09983026 38.75819037 124.53015872 43.50122708 116.02661133 48.39770508 C108.01480751 53.00716338 99.95115869 57.52127153 91.87524414 62.01733398 C85.73790769 65.44107764 79.66622316 68.95132032 73.64477539 72.57568359 C69.68187953 74.70986013 66.47629596 75.72567938 62 75 C57.72431838 73.51250559 53.9077508 71.25115273 50 69 C48.33293539 68.0634929 46.66488426 67.12874069 44.99609375 66.1953125 C41.07702847 63.99626611 37.16680083 61.78237295 33.26171875 59.55859375 C27.06516237 56.03168086 20.84786669 52.54273021 14.625 49.0625 C13.08549683 48.20011719 13.08549683 48.20011719 11.51489258 47.3203125 C6.07570447 44.27446891 0.6311405 41.23868446 -4.8203125 38.21484375 C-5.93873535 37.59279053 -7.0571582 36.9707373 -8.20947266 36.32983398 C-10.33501738 35.14783683 -12.46218623 33.96875344 -14.59130859 32.79321289 C-31.84988159 23.18361881 -31.84988159 23.18361881 -34 18 C-33.28972656 17.89800293 -32.57945313 17.79600586 -31.84765625 17.69091797 C-28.61139817 16.90571475 -26.29942677 15.64348639 -23.4375 13.9453125 C-22.39335938 13.33042969 -21.34921875 12.71554688 -20.2734375 12.08203125 C-18.65308594 11.11330078 -18.65308594 11.11330078 -17 10.125 C-15.37964844 9.16787109 -15.37964844 9.16787109 -13.7265625 8.19140625 C-9.14008161 5.47915397 -4.56807032 2.74312208 0 0 Z " fill="#283593" transform="translate(60,160)"/>
<path d="M0 0 C3.40687721 2.70891656 6.05407335 5.66862752 8.6875 9.125 C6.20829295 11.89839447 3.48227299 13.53288797 0.25390625 15.35546875 C-0.85726562 15.98630371 -1.9684375 16.61713867 -3.11328125 17.26708984 C-4.32547726 17.9489707 -5.53771793 18.63077216 -6.75 19.3125 C-7.99507453 20.01724138 -9.23986216 20.72248986 -10.484375 21.42822266 C-13.0899288 22.9053556 -15.69673073 24.38025385 -18.30419922 25.85400391 C-22.29501659 28.11213765 -26.27572393 30.38766548 -30.25390625 32.66796875 C-31.21132973 33.216558 -31.21132973 33.216558 -32.18809509 33.77622986 C-34.67251773 35.19993202 -37.15680697 36.62386559 -39.64059448 38.04867554 C-41.35354982 39.03088721 -43.0673815 40.01157009 -44.78125 40.9921875 C-45.75513672 41.55019043 -46.72902344 42.10819336 -47.73242188 42.68310547 C-49.90088185 43.89496435 -52.07896467 45.03921703 -54.3125 46.125 C-59.39240289 38.17384765 -59.13812838 29.317146 -58.3125 20.125 C-57.48536285 16.69356247 -56.24225145 14.06471483 -54.3125 11.125 C-53.88839844 10.44308594 -53.46429688 9.76117188 -53.02734375 9.05859375 C-48.47403362 2.37448668 -41.7000512 -3.92091729 -33.8671875 -6.4375 C-21.39217619 -8.57389337 -10.44791202 -7.35223439 0 0 Z " fill="#5C6BC0" transform="translate(147.3125,95.875)"/>
<path d="M0 0 C0.71051514 0.34643555 1.42103027 0.69287109 2.15307617 1.04980469 C2.85924072 1.42008789 3.56540527 1.79037109 4.29296875 2.171875 C5.08405029 2.58646973 5.87513184 3.00106445 6.69018555 3.42822266 C7.51429932 3.86440918 8.33841309 4.3005957 9.1875 4.75 C10.03159424 5.19520996 10.87568848 5.64041992 11.74536133 6.09912109 C17.61702672 9.21612918 23.37954468 12.44567607 29 16 C26.5905987 23.29160921 20.37560184 27.99933883 13.6875 31.4375 C5.80613053 35.12208153 -4.61939425 35.71508475 -13.03271484 33.45361328 C-21.37316799 30.40855102 -28.04868773 25.3627583 -33 18 C-33.33 17.01 -33.66 16.02 -34 15 C-27.73824714 10.71144066 -21.35825085 6.73206938 -14.75 3 C-13.87859375 2.48566406 -13.0071875 1.97132813 -12.109375 1.44140625 C-11.26375 0.96574219 -10.418125 0.49007812 -9.546875 0 C-8.79245117 -0.433125 -8.03802734 -0.86625 -7.26074219 -1.3125 C-4.16668565 -2.25341395 -2.83841024 -1.4405455 0 0 Z " fill="#283593" transform="translate(127,127)"/>
</svg>
