<?xml version="1.0" encoding="UTF-8"?>
<svg version="1.1" xmlns="http://www.w3.org/2000/svg" width="250" height="250">
<path d="M0 0 C4.31226745 -0.11719343 8.62411934 -0.18758416 12.9375 -0.25 C14.75604492 -0.30027344 14.75604492 -0.30027344 16.61132812 -0.3515625 C24.65858543 -0.43879564 31.46882078 0.12173922 37.77563477 5.51977539 C49.51881687 17.30962687 51.3821239 38.52345069 51.5 54.1875 C51.43247904 64.0533784 50.51406757 72.74991149 47 82 C46.67644531 82.86367187 46.35289062 83.72734375 46.01953125 84.6171875 C42.53254458 93.0713511 38.13494779 101.43774271 29.32162476 105.11862183 C25.4272387 106.15197963 21.78670555 106.26560168 17.79150391 106.22705078 C16.99083496 106.22734283 16.19016602 106.22763489 15.36523438 106.22793579 C12.73556439 106.22654955 10.1061826 106.21102179 7.4765625 106.1953125 C5.64667923 106.19157986 3.81679395 106.18873407 1.98690796 106.18673706 C-2.81680877 106.17912039 -7.62040354 106.15948882 -12.42407227 106.1373291 C-17.33087515 106.11682827 -22.23769784 106.10772629 -27.14453125 106.09765625 C-36.76307426 106.07624104 -46.38152697 106.04212888 -56 106 C-56 107.65 -56 109.3 -56 111 C-39.17 111 -22.34 111 -5 111 C-4.896875 115.455 -4.79375 119.91 -4.6875 124.5 C-4.64197998 125.88896484 -4.59645996 127.27792969 -4.54956055 128.70898438 C-4.45221647 137.41594112 -5.69690723 142.35891596 -11.58520508 148.7097168 C-19.45461634 156.58172908 -31.4594961 158.97403302 -42 161 C-42.94359375 161.185625 -43.8871875 161.37125 -44.859375 161.5625 C-62.71283355 164.04954895 -84.53801187 161.72570796 -99.5 151.0625 C-104.94568008 146.5588996 -108.75392262 142.16063594 -110 135 C-110.28437536 130.78134146 -110.28033043 126.574643 -110.265625 122.34765625 C-110.26753845 121.13355576 -110.2694519 119.91945526 -110.27142334 118.66856384 C-110.27278098 116.10757235 -110.26911403 113.54657387 -110.26074219 110.9855957 C-110.25004636 107.07943145 -110.26064739 103.17372806 -110.2734375 99.26757812 C-110.27211565 96.77343649 -110.26955273 94.27929514 -110.265625 91.78515625 C-110.26967346 90.62347427 -110.27372192 89.4617923 -110.27789307 88.26490784 C-110.22139402 78.42500337 -109.38867532 70.58027267 -102.2421875 63.1796875 C-94.04061407 55.4927226 -86.62226835 54.57308308 -75.66840363 54.68100548 C-73.59744924 54.69960655 -71.52749212 54.69664468 -69.45648193 54.6879425 C-63.57401743 54.6663 -57.69194532 54.67685278 -51.80957031 54.71508789 C-48.1949302 54.73708155 -44.58127369 54.72946273 -40.96666718 54.7046299 C-38.94843778 54.69936944 -36.93020621 54.72685072 -34.91217041 54.7552948 C-25.18905884 54.67869031 -17.23182365 52.55720318 -9.76855469 46.05628967 C-1.00997541 37.11083189 -0.37158854 26.26522861 -0.25 14.375 C-0.22177741 12.97522457 -0.19184144 11.57548259 -0.16015625 10.17578125 C-0.08997727 6.78379742 -0.03702048 3.39248042 0 0 Z " fill="#FFD045" transform="translate(182,71)"/>
<path d="M0 0 C2.29242937 0.01616111 4.58310968 -0.00000895 6.87548828 -0.01904297 C20.35307858 -0.03841924 35.92307434 0.42812877 46.15283203 10.31689453 C51.10757548 15.77533596 54.52312775 20.17048067 54.58056641 27.7668457 C54.59647827 29.03554001 54.61239014 30.30423431 54.62878418 31.6113739 C54.63005204 32.98977604 54.63022791 34.36817956 54.62939453 35.74658203 C54.63650378 37.17279863 54.64420389 38.59901239 54.65246582 40.02522278 C54.66589733 43.01355938 54.66748707 46.00163194 54.66162109 48.98999023 C54.6557467 52.79517715 54.68622626 56.59907852 54.72673798 60.40401745 C54.75276673 63.35114713 54.75547845 66.29797427 54.75184631 69.24520302 C54.75352557 70.64646936 54.76305157 72.04775152 54.7809906 73.44890404 C54.88991728 83.01369087 54.07332712 90.97178099 47.43444824 98.29533386 C39.60644266 105.86167804 30.47222366 105.82161714 20.16845703 105.79736328 C18.81377929 105.80661656 17.45911236 105.81759404 16.10446167 105.8302002 C11.83153592 105.86674428 7.55870341 105.880646 3.28564453 105.89111328 C-1.66537648 105.9032632 -6.61597456 105.92512848 -11.56680679 105.97111511 C-13.53072931 105.98451654 -15.49474695 105.98034557 -17.45870972 105.97570801 C-28.52329103 106.06780812 -37.60607922 107.58278032 -45.83935547 115.39111328 C-54.73236815 124.76809945 -55.30300211 135.59544981 -55.52685547 148.01611328 C-55.56101563 149.30646484 -55.59517578 150.59681641 -55.63037109 151.92626953 C-55.71216378 155.08113045 -55.78153779 158.23573738 -55.83935547 161.39111328 C-59.4850326 161.47928233 -63.13043021 161.53189276 -66.77685547 161.57861328 C-67.7984375 161.60375 -68.82001953 161.62888672 -69.87255859 161.65478516 C-79.48803282 161.74694625 -86.93833556 160.1928965 -94.05419922 153.47314453 C-104.26240222 141.56729726 -106.23682178 123.84284994 -106.21435547 108.82861328 C-106.21274414 107.69762207 -106.21113281 106.56663086 -106.20947266 105.40136719 C-105.98796401 90.08469595 -103.54689671 74.89460886 -92.90576172 63.21923828 C-85.95871298 57.07326699 -78.2288556 55.23231229 -69.22509766 55.27758789 C-68.46373505 55.27744186 -67.70237244 55.27729584 -66.91793823 55.27714539 C-64.40733976 55.27784073 -61.89681595 55.28561541 -59.38623047 55.29345703 C-57.64316854 55.29532255 -55.90010609 55.29674582 -54.15704346 55.29774475 C-49.57363431 55.30155935 -44.99025695 55.31138061 -40.40686035 55.32244873 C-35.7281131 55.33268558 -31.0493607 55.33724725 -26.37060547 55.34228516 C-17.19350819 55.35300382 -8.01643447 55.37006756 1.16064453 55.39111328 C1.16064453 53.74111328 1.16064453 52.09111328 1.16064453 50.39111328 C-15.99935547 50.39111328 -33.15935547 50.39111328 -50.83935547 50.39111328 C-50.83935547 16.27515096 -50.83935547 16.27515096 -43.85888672 9.10986328 C-32.6777731 -0.4059781 -13.97004583 -0.11664136 0 0 Z " fill="#3671A2" transform="translate(122.83935546875,15.60888671875)"/>
<path d="M0 0 C2.8100346 1.79363911 4.50940468 3.01880935 6 6 C6.45063943 9.96562695 6.12904332 11.76416221 4.1875 15.3125 C1.42434256 18.70723629 -0.08879994 18.89875555 -4.375 19.375 C-8 19 -8 19 -10.875 16.625 C-13.9265967 12.85538054 -14.47627542 10.85800924 -14 6 C-10.20561019 0.30841528 -6.78025849 -0.97417507 0 0 Z " fill="#FFFDF7" transform="translate(158,196)"/>
<path d="M0 0 C2.86830829 2.01391859 4.61592935 3.45434983 5.48046875 6.93359375 C5.77055907 11.08110127 5.31126311 12.61501668 2.625 15.9375 C-1.14000049 18.89571467 -3.18897558 19.56600287 -8 19 C-11.84128305 15.75624987 -13.80779972 13.69776915 -14.375 8.6875 C-14 5 -14 5 -11.625 2.125 C-7.34439753 -1.34024962 -5.40195142 -1.28181898 0 0 Z " fill="#F8FAFB" transform="translate(100,33)"/>
</svg>
